<?xml version="1.0" encoding="UTF-8"?>
<svg xmlns="http://www.w3.org/2000/svg" viewBox="0 0 64 64" width="512" height="512"><g id="Pet_care-Women-Lifestyle-Dog-Animals" data-name="Pet care-Women-Lifestyle-Dog-Animals"><circle cx="40" cy="18" r="2"/><circle cx="48" cy="18" r="2"/><path d="M23.5,41.41l-1.01-5.04a3.03,3.03,0,0,0-1.62-2.11,2.966,2.966,0,0,0-2.66.02l-.51.25A3,3,0,0,0,16,34H12a3,3,0,0,0-1.7.53l-.51-.25a2.966,2.966,0,0,0-2.66-.02,3.03,3.03,0,0,0-1.62,2.11L4.5,41.41A3,3,0,0,0,7.44,45H8a1.007,1.007,0,0,0,.94-.65l.5-1.33a4.979,4.979,0,0,0,9.12,0l.5,1.33A1.007,1.007,0,0,0,20,45h.56a3,3,0,0,0,2.94-3.59ZM9,37v1.49l-1.69,4.5a.971.971,0,0,1-.64-.36.936.936,0,0,1-.21-.82l1.01-5.04a.987.987,0,0,1,.54-.71.974.974,0,0,1,.88,0l.24.12A2.76,2.76,0,0,0,9,37Zm8,4a3,3,0,0,1-6,0V37a1,1,0,0,1,1-1h4a1,1,0,0,1,1,1Zm4.33,1.63a.971.971,0,0,1-.64.36L19,38.49V37a2.76,2.76,0,0,0-.13-.82l.24-.12a.974.974,0,0,1,.88,0,.987.987,0,0,1,.54.71l1.01,5.04A.936.936,0,0,1,21.33,42.63Z"/><path d="M17,48H11a5.006,5.006,0,0,0-5,5v1.184A2.966,2.966,0,0,0,5,54a3,3,0,0,0,0,6,2.966,2.966,0,0,0,1-.184V61a1,1,0,0,0,1,1h5a1,1,0,0,0,.895-.553L14,59.236l1.105,2.211A1,1,0,0,0,16,62h5a1,1,0,0,0,1-1V53A5.006,5.006,0,0,0,17,48ZM5,58a1,1,0,1,1,1-1A1,1,0,0,1,5,58Zm15,2H16.618L14.9,56.553a1.042,1.042,0,0,0-1.79,0L11.382,60H8V53a3,3,0,0,1,3-3h6a3,3,0,0,1,3,3Z"/><path d="M56.06,33.23,49,32.14V29.65c.21-.13.42-.25.62-.39l2.54.85a9.119,9.119,0,0,0,2.84.45,9.228,9.228,0,0,0,2.85-.45l3.47-1.16a1.013,1.013,0,0,0,.59-.54.971.971,0,0,0,.01-.8L59,20.79V16C59,8.28,52.27,2,44,2A15.261,15.261,0,0,0,33.51,6.08,13.558,13.558,0,0,0,29,16v4.79l-2.92,6.82a.971.971,0,0,0,.01.8,1.013,1.013,0,0,0,.59.54l3.48,1.16a9.218,9.218,0,0,0,5.69,0l2.53-.85c.2.14.41.26.62.39v2.49l-7.06,1.09A6.967,6.967,0,0,0,26,40.15V58a1,1,0,0,0,.76.97l12.06,3a.986.986,0,0,0,.24.03h9.91a.986.986,0,0,0,.24-.03l12.03-3A1,1,0,0,0,62,58V40.15A6.967,6.967,0,0,0,56.06,33.23ZM35.22,28.21a7.135,7.135,0,0,1-4.43,0l-2.44-.81,2.57-6.01A1.006,1.006,0,0,0,31,21V16a11.622,11.622,0,0,1,3.87-8.46A13.3,13.3,0,0,1,44,4c7.17,0,13,5.38,13,12v5a1.006,1.006,0,0,0,.08.39l2.57,6.01-2.43.81a7.135,7.135,0,0,1-4.43,0l-1.41-.47a9.893,9.893,0,0,0,2.58-5.9A2.993,2.993,0,0,0,56,19V17a3.014,3.014,0,0,0-2-2.83V12a1,1,0,0,0-1-1H35a1,1,0,0,0-1,1v2.17A3.014,3.014,0,0,0,32,17v2a2.993,2.993,0,0,0,2.04,2.84,9.893,9.893,0,0,0,2.58,5.9ZM36,21a1,1,0,0,0-1-1,1,1,0,0,1-1-1V17a1,1,0,0,1,1-1,1,1,0,0,0,1-1V13H52v2a1,1,0,0,0,1,1,1,1,0,0,1,1,1v2a1,1,0,0,1-1,1,1,1,0,0,0-1,1,8,8,0,0,1-16,0Zm0,13.63,4.15-.64A1.008,1.008,0,0,0,41,33V30.53a9.809,9.809,0,0,0,6,0V33a1.008,1.008,0,0,0,.85.99l4.15.64V43H36Zm-8,5.52a4.967,4.967,0,0,1,4.24-4.94L34,34.94V43H28ZM60,57.22,48.85,60H39.18L28,57.22V45H60ZM60,43H54V34.94l1.76.27A4.967,4.967,0,0,1,60,40.15Z"/></g></svg>
